<svg width="1280" height="800" viewBox="0 0 1280 800" fill="none" xmlns="http://www.w3.org/2000/svg">
  <defs>
    <linearGradient id="bg-media" x1="120" y1="70" x2="1134" y2="736" gradientUnits="userSpaceOnUse">
      <stop stop-color="#163548"/>
      <stop offset="0.52" stop-color="#3E6E68"/>
      <stop offset="1" stop-color="#D9E8DF"/>
    </linearGradient>
    <radialGradient id="glow-media" cx="0" cy="0" r="1" gradientUnits="userSpaceOnUse" gradientTransform="translate(932 282) rotate(90) scale(214 214)">
      <stop stop-color="#ECF8F2" stop-opacity="0.72"/>
      <stop offset="1" stop-color="#ECF8F2" stop-opacity="0"/>
    </radialGradient>
  </defs>
  <rect width="1280" height="800" rx="36" fill="url(#bg-media)"/>
  <rect x="78" y="60" width="1124" height="680" rx="30" fill="rgba(255,255,255,0.08)" stroke="rgba(255,255,255,0.16)"/>
  <text x="132" y="154" fill="#CDE6DB" font-size="18" font-family="Arial, sans-serif" letter-spacing="4">MEDIA SHOWCASE</text>
  <text x="132" y="286" fill="#FFFFFF" font-size="94" font-weight="700" font-family="Georgia, serif">Launch through</text>
  <text x="132" y="372" fill="#FFFFFF" font-size="94" font-weight="700" font-family="Georgia, serif">a visual object</text>
  <text x="132" y="468" fill="#D5E4DD" font-size="30" font-family="Arial, sans-serif">Для app, product и showcase-сценариев, где главный</text>
  <text x="132" y="508" fill="#D5E4DD" font-size="30" font-family="Arial, sans-serif">аргумент — образ, экран или носитель.</text>
  <rect x="132" y="566" width="210" height="58" rx="29" fill="#F2FAF6"/>
  <text x="188" y="603" fill="#1B3D4B" font-size="24" font-weight="700" font-family="Arial, sans-serif">Preview</text>
  <circle cx="918" cy="280" r="212" fill="url(#glow-media)"/>
  <rect x="780" y="166" width="304" height="458" rx="42" fill="#EDF7F2"/>
  <rect x="810" y="198" width="244" height="394" rx="28" fill="#BED5CD"/>
  <rect x="858" y="246" width="148" height="148" rx="26" fill="#2F615F" fill-opacity="0.32"/>
  <rect x="846" y="444" width="172" height="18" rx="9" fill="#EDF7F2"/>
  <rect x="874" y="476" width="116" height="18" rx="9" fill="#EDF7F2"/>
  <rect x="728" y="524" width="134" height="54" rx="27" fill="rgba(255,255,255,0.16)" stroke="rgba(255,255,255,0.28)"/>
  <rect x="1000" y="132" width="140" height="54" rx="27" fill="rgba(255,255,255,0.16)" stroke="rgba(255,255,255,0.28)"/>
  <text x="790" y="680" fill="#F2FAF6" font-size="36" font-weight="700" font-family="Georgia, serif">Media Showcase</text>
</svg>